# AST/ASF file generated using VICON BodyLanguage
# -----------------------------------------------
:version 1.10
:name VICON
:units
  mass 1.0
  length 0.45
  angle deg
:documentation
   .ast/.asf automatically generated from VICON data using
   VICON BodyBuilder and BodyLanguage model FoxedUp or BRILLIANT.MOD
:root
   order TX TY TZ RX RY RZ
   axis XYZ
   position 0 0 0  
   orientation 0 0 0 
:bonedata
  begin
     id 1 
     name lhipjoint
     direction 0.734343 -0.627749 0.258209 
     length 2.5437 
     axis 0 0 0  XYZ
  end
  begin
     id 2 
     name lfemur
     direction 0.34202 -0.939693 0  
     length 6.7391  
     axis 0 0 20  XYZ
    dof rx ry rz
    limits (-160.0 20.0)
           (-70.0 70.0)
           (-60.0 70.0)
  end
  begin
     id 3 
     name ltibia
     direction 0.34202 -0.939693 0   
     length 7.21536   
     axis 0 0 20   XYZ
    dof rx
    limits (-10.0 170.0)
  end
  begin
     id 4 
     name lfoot
     direction 0.0489572 -0.134509 0.989702   
     length 1.61313   
     axis -90 7.62852e-016 20   XYZ
    dof rx rz
    limits (-45.0 90.0)
           (-70.0 20.0)
  end
  begin
     id 5 
     name ltoes
     direction 1.53451e-011 -4.21692e-011 1   
     length 0.823104   
     axis -90 7.62852e-016 20   XYZ
    dof rx
    limits (-90.0 20.0)
  end
  begin
     id 6 
     name rhipjoint
     direction -0.746398 -0.615468 0.253157   
     length 2.59446  
     axis 0 0 0  XYZ 
  end
  begin
     id 7 
     name rfemur
     direction -0.34202 -0.939693 0   
     length 6.7075   
     axis 0 0 -20   XYZ
    dof rx ry rz
    limits (-160.0 20.0)
           (-70.0 70.0)
           (-70.0 60.0)
  end
  begin
     id 8 
     name rtibia
     direction -0.34202 -0.939693 0   
     length 7.27262   
     axis 0 0 -20   XYZ
    dof rx
    limits (-10.0 170.0)
 end
 begin
     id 9 
     name rfoot
     direction -0.0455203 -0.125066 0.991104   
     length 1.91095  
     axis -90 -7.62852e-016 -20   XYZ
    dof rx rz
    limits (-45.0 90.0)
           (-20.0 70.0)
  end
  begin
     id 10 
     name rtoes
     direction -1.53601e-011 -4.21913e-011 1   
     length 0.969037   
     axis -90 -7.62852e-016 -20   XYZ
    dof rx
    limits (-90.0 20.0)
  end
  begin
     id 11 
     name lowerback
     direction 0.0181546 0.999122 -0.0377542   
     length 1.99916   
     axis 0 0 0   XYZ
    dof rx ry rz
    limits (-20.0 45.0)
           (-30.0 30.0)
           (-30.0 30.0)
  end
  begin
     id 12 
     name upperback
     direction 0.0203486 0.99589 0.0882534   
     length 1.951   
     axis 0 0 0   XYZ
    dof rx ry rz
    limits (-20.0 45.0)
           (-30.0 30.0)
           (-30.0 30.0)
  end
  begin
     id 13 
     name thorax
     direction 0.0131685 0.994241 0.106355   
     length 1.97461   
     axis 0 0 0   XYZ
    dof rx ry rz
    limits (-20.0 45.0)
           (-30.0 30.0)
           (-30.0 30.0)
  end
  begin
     id 14 
     name lowerneck
     direction -0.0281395 0.999325 0.023617   
     length 1.7959   
     axis 0 0 0   XYZ
    dof rx ry rz
    limits (-20.0 45.0)
           (-30.0 30.0)
           (-30.0 30.0)
  end
  begin
     id 15 
     name upperneck
     direction 0.0288721 0.991984 -0.123019   
     length 1.79917   
     axis 0 0 0   XYZ
    dof rx ry rz
    limits (-20.0 45.0)
           (-30.0 30.0)
           (-30.0 30.0)
  end
  begin
     id 16
     name head
     direction 0.0133797 0.998944 -0.0439492  
     length 1.80902  
     axis 0 0 0   XYZ
    dof rx ry rz
    limits (-20.0 45.0)
           (-30.0 30.0)
           (-30.0 30.0)
  end
  begin
     id 17 
     name lclavicle
     direction 0.919195 0.377107 0.113449  
     length 3.17815  
     axis 0 0 0   XYZ
    dof ry rz
    limits (-20.0 10.0)
           (0.0 20.0)
  end
  begin
     id 18 
     name lhumerus
     direction 1 -4.48959e-011 2.13129e-027   
     length 4.84137   
     axis 180 -30 -90   XYZ
    dof rx ry rz
    limits (-60.0 90.0)
           (-90.0 90.0)
           (-90.0 90.0)
  end
  begin
     id 19
     name lradius
     direction 1 -4.48957e-011 -6.30627e-028   
     length 3.2452   
     axis 180 -30 -90   XYZ
    dof rx
    limits (-10.0 170.0)
  end
  begin
     id 20
     name lwrist
     direction 1 -4.4901e-011 9.13299e-027   
     length 1.6226   
     axis -6.84618e-015 90 90   XYZ
    dof ry
    limits (-180.0 0.0)
 end
  begin
     id 21 
     name lhand
     direction 1 -4.48816e-011 1.82293e-026   
     length 0.521221   
     axis -1.16502e-014 90 90   XYZ
    dof rx rz
    limits (-90.0 90.0)
           (-45.0 45.0)
  end
  begin
     id 22 
     name lfingers
     direction 1 -4.49108e-011 3.65687e-026   
     length 0.420221   
     axis -2.33008e-014 90 90   XYZ
    dof rx
    limits (0.0 90.0)
  end
  begin
     id 23
     name lthumb
     direction 0.707107 -6.34943e-011 0.707107   
     length 0.603356   
     axis -90 45 5.69224e-014   XYZ
    dof rx rz
    limits (-45.0 45.0)
           (-45.0 45.0)
  end
  begin
     id 24 
     name rclavicle
     direction -0.90847 0.38596 0.160368   
     length 3.12973  
     axis 0 0 0   XYZ 
    dof ry rz
    limits (-10.0 20.0)
           (-20.0 0.0)
  end
  begin
     id 25 
     name rhumerus
     direction -1 -4.48974e-011 4.47268e-028  
     length 4.72284   
     axis 180 30 90   XYZ
    dof rx ry rz
    limits (-90.0 60.0)
           (-90.0 90.0)
           (-90.0 90.0)
  end
  begin
     id 26 
     name rradius
     direction -1 -4.48969e-011 3.43203e-027   
     length 3.23459   
     axis 180 30 90   XYZ
    dof rx
    limits (-10.0 170.0)
  end
  begin
     id 27 
     name rwrist
     direction -1 -4.48969e-011 9.12911e-027   
     length 1.6173   
     axis -6.84618e-015 -90 -90   XYZ
    dof ry
    limits (-180.0 0.0)
  end
  begin
     id 28
     name rhand
     direction -1 -4.49194e-011 1.83006e-026   
     length 0.307416   
     axis -1.16502e-014 -90 -90   XYZ
    dof rx rz
    limits (-90.0 90.0)
           (-45.0 45.0)
  end
  begin
     id 29
     name rfingers
     direction -1 -4.48423e-011 3.63103e-026   
     length 0.247847   
     axis -2.33008e-014 -90 -90   XYZ
    dof rx
    limits (0.0 90.0)
  end
  begin
     id 30
     name rthumb
     direction -0.707107 -6.34802e-011 0.707107   
     length 0.35586   
     axis -90 -45 -5.69224e-014   XYZ
    dof rx rz
    limits (-45.0 45.0)
           (-45.0 45.0)
  end
:hierarchy
  begin
    root lhipjoint rhipjoint lowerback
    lhipjoint lfemur
    lfemur ltibia
    ltibia lfoot
    lfoot ltoes
    rhipjoint rfemur
    rfemur rtibia
    rtibia rfoot
    rfoot rtoes
    lowerback upperback
    upperback thorax
    thorax lowerneck lclavicle rclavicle
    lowerneck upperneck
    upperneck head
    lclavicle lhumerus
    lhumerus lradius
    lradius lwrist
    lwrist lhand lthumb
    lhand lfingers
    rclavicle rhumerus
    rhumerus rradius
    rradius rwrist
    rwrist rhand rthumb
    rhand rfingers
  end

#!OML:ASF H:\Terrain\Patient Classification 1\Animal1\Tuesday\Animal1.ASF
:FULLY-SPECIFIED
:DEGREES
123
root 9.66241 15.3401 -18.1489 7.09649 -0.685975 -1.35374
lowerback -1.86748 -1.37905 -0.67838
upperback -8.77274 -1.72163 2.46798
thorax -8.04472 -0.701649 3.06591
lowerneck -12.0208 1.95336 -2.50569
upperneck 23.8276 2.97749 1.35032
head 9.42568 1.31424 1.23298
rclavicle -4.57205e-014 1.11319e-014
rhumerus -26.7095 8.13467 -38.7891
rradius 140.109
rwrist -56.7663
rhand -19.3089 35.8249
rfingers 7.12502
rthumb 7.00696 5.96091
lclavicle -4.57205e-014 1.11319e-014
lhumerus -32.6929 -3.82896 43.8486
lradius 140.939
lwrist 33.1575
lhand 2.88194 31.3659
lfingers 7.12502
lthumb 28.3477 59.24
rfemur -38.5823 12.1807 19.4254
rtibia 48.7543
rfoot -10.7435 -18.9269
rtoes -8.22205
lfemur -12.7404 -10.2038 -15.8245
ltibia 51.4138
lfoot -17.9129 2.96196
ltoes 7.04409
124
root 9.59741 15.3565 -18.0905 7.04551 -0.408681 -1.46399
lowerback -1.80293 -1.33668 -0.685209
upperback -8.75523 -1.65911 2.53973
thorax -8.06504 -0.66637 3.14414
lowerneck -12.0949 1.91078 -2.83801
upperneck 23.7438 2.95147 1.52726
head 9.40216 1.29371 1.34679
rclavicle -5.56597e-015 1.15295e-014
rhumerus -28.4385 2.41006 -41.2061
rradius 140.913
rwrist -56.6986
rhand -18.8575 35.9801
rfingers 7.12502
rthumb 7.44273 6.131
lclavicle -5.56597e-015 1.15295e-014
lhumerus -33.8932 2.3951 46.0488
lradius 141.664
lwrist 33.6779
lhand 3.24865 30.9002
lfingers 7.12502
lthumb 28.6981 58.7154
rfemur -38.0183 12.2279 19.8995
rtibia 48.5064
rfoot -11.4565 -19.2318
rtoes -6.15109
lfemur -13.6235 -9.84407 -15.2631
ltibia 52.9085
lfoot -15.8179 1.12007
ltoes 14.5017
125
root 9.5326 15.3726 -18.0341 7.02271 -0.0599908 -1.47446
lowerback -1.68707 -1.18691 -0.730828
upperback -8.75523 -1.46311 2.44143
thorax -8.14534 -0.568074 3.05958
lowerneck -12.2834 1.73455 -2.83678
upperneck 23.757 2.71327 1.51975
head 9.44874 1.18208 1.32016
rclavicle -4.37326e-015 1.98785e-014
rhumerus -30.4752 -3.35192 -43.3624
rradius 141.59
rwrist -56.5525
rhand -18.2695 36.5954
rfingers 7.12502
rthumb 8.01027 6.76721
lclavicle -4.37326e-015 1.98785e-014
lhumerus -34.8641 8.06279 48.2135
lradius 142.184
lwrist 33.7734
lhand 3.13932 30.5979
lfingers 7.12502
lthumb 28.5937 58.4309
rfemur -37.5579 12.2398 20.2459
rtibia 48.2613
rfoot -11.9383 -19.2733
rtoes -3.93237
lfemur -14.6152 -9.46556 -14.8259
ltibia 54.4996
lfoot -13.5158 0.326686
ltoes 15.0747
126
root 9.47018 15.3899 -17.9773 7.0129 0.269224 -1.40175
lowerback -1.61765 -0.949206 -0.813025
upperback -8.74736 -1.15818 2.21937
thorax -8.19689 -0.418979 2.85656
lowerneck -12.2874 1.56544 -2.70416
upperneck 23.6003 2.43163 1.58028
head 9.40207 1.07204 1.28441
rclavicle -3.18055e-015 -1.27222e-014
rhumerus -32.6226 -8.71537 -45.1835
rradius 142.101
rwrist -56.1795
rhand -19.1094 38.5169
rfingers 7.12502
rthumb 7.19952 8.65932
lclavicle -3.18055e-015 -1.27222e-014
lhumerus -35.65 13.1855 50.2016
lradius 142.47
lwrist 33.6881
lhand 2.72725 30.2061
lfingers 7.12502
lthumb 28.1999 58.1046
rfemur -37.1221 12.2867 20.471
rtibia 47.9877
rfoot -12.0943 -19.3475
rtoes -2.71999
lfemur -15.6829 -9.10952 -14.5141
ltibia 56.172
lfoot -11.7905 -0.402484
ltoes 12.4918
127
root 9.40941 15.4022 -17.9264 6.97607 0.628505 -1.79382
lowerback -1.48447 -0.801247 -0.467193
upperback -8.7989 -0.944862 2.21913
thorax -8.34787 -0.335532 2.65521
lowerneck -12.092 1.49268 -2.82491
upperneck 23.4006 2.27331 1.89815
head 9.29224 1.02567 1.39063
rclavicle 9.34288e-015 -2.78299e-015
rhumerus -34.207 -12.9677 -46.9655
rradius 142.575
rwrist -55.6541
rhand -21.0963 39.9276
rfingers 7.12502
rthumb 5.28138 10.0134
lclavicle 9.34288e-015 -2.78299e-015
lhumerus -36.8045 18.1186 51.662
lradius 142.636
lwrist 33.5882
lhand 2.84919 30.0589
lfingers 7.12502
lthumb 28.3164 57.9381
rfemur -36.6215 12.2591 21.2401
rtibia 47.6661
rfoot -11.8453 -19.6033
rtoes -3.39
lfemur -16.8844 -8.67323 -13.6433
ltibia 57.9622
lfoot -10.4525 -1.79322
ltoes 9.90046
128
root 9.35054 15.4081 -17.8763 6.85064 1.04631 -2.41199
lowerback -1.32761 -0.744431 0.0480147
upperback -8.8231 -0.836657 2.3729
thorax -8.47693 -0.31101 2.52695
lowerneck -12.0535 1.44113 -2.85972
upperneck 23.4238 2.19207 1.96785
head 9.29378 0.992724 1.41125
rclavicle -2.6339e-014 4.57205e-014
rhumerus -35.1689 -15.896 -48.8645
rradius 143.059
rwrist -55.1298
rhand -22.3119 40.1391
rfingers 7.12502
rthumb 4.10758 10.199
lclavicle -2.6339e-014 4.57205e-014
lhumerus -38.2206 22.4051 52.8336
lradius 142.639
lwrist 32.9596
lhand 3.00085 29.5888
lfingers 7.12502
lthumb 28.4614 57.4439
rfemur -36.013 12.234 22.2762
rtibia 47.3373
rfoot -11.2641 -20.0289
rtoes -5.03233
lfemur -18.0616 -8.2281 -12.4787
ltibia 59.8539
lfoot -8.70521 -3.18805
ltoes 10.4145
129
root 9.2943 15.4158 -17.8233 6.75268 1.35487 -2.6024
lowerback -1.14681 -0.732106 0.208452
upperback -8.92083 -0.807658 2.38743
thorax -8.69457 -0.304994 2.45702
lowerneck -12.0092 1.48183 -2.58524
upperneck 23.6658 2.25437 1.70431
head 9.37601 1.01533 1.28453
rclavicle 1.11319e-014 3.97569e-015
rhumerus -35.8407 -17.2225 -51.0074
rradius 143.523
rwrist -55.0429
rhand -23.5351 40.6874
rfingers 7.12502
rthumb 2.92636 10.7277
lclavicle 1.11319e-014 3.97569e-015
lhumerus -39.9677 25.4928 53.5272
lradius 142.51
lwrist 31.9948
lhand 3.34688 28.4938
lfingers 7.12502
lthumb 28.792 56.2931
rfemur -35.4939 12.2442 22.8138
rtibia 47.0667
rfoot -11.2737 -20.3697
rtoes -4.76483
lfemur -19.2047 -7.76878 -11.8244
ltibia 61.7598
lfoot -6.80591 -3.99569
ltoes 13.9269
130
root 9.24059 15.4177 -17.775 6.69955 1.65152 -2.80309
lowerback -0.746983 -0.764197 0.550385
upperback -9.17271 -0.828395 2.32794
thorax -9.21528 -0.338659 2.21916
lowerneck -12.0941 1.60932 -2.29065
upperneck 24.1837 2.3844 1.66434
head 9.57556 1.09389 1.24473
rclavicle -4.96962e-016 8.34896e-015
rhumerus -36.4401 -16.9047 -53.273
rradius 143.873
rwrist -55.6828
rhand -24.2531 40.5509
rfingers 7.12502
rthumb 2.23288 10.5828
lclavicle -4.96962e-016 8.34896e-015
lhumerus -42.0212 27.1437 53.5166
lradius 142.441
lwrist 31.7522
lhand 4.23735 27.3682
lfingers 7.12502
lthumb 29.6423 55.0196
rfemur -35.0976 12.1835 23.3556
rtibia 46.8749
rfoot -11.6396 -20.6622
rtoes -3.71767
lfemur -20.4404 -7.26279 -11.1757
ltibia 63.6513
lfoot -5.48027 -4.67868
ltoes 17.3296
131
root 9.19269 15.4102 -17.7314 6.64839 2.0053 -3.2129
lowerback -0.619886 -0.795509 0.916476
upperback -9.19417 -0.838868 2.47226
thorax -9.31887 -0.364641 2.17201
lowerneck -12.642 1.68931 -2.13942
upperneck 24.6782 2.48211 1.65567
head 9.85606 1.14818 1.24291
rclavicle 3.18055e-015 -1.23246e-014
rhumerus -36.434 -15.3147 -55.1214
rradius 144.079
rwrist -57.0312
rhand -23.6257 38.9323
rfingers 7.12502
rthumb 2.83885 8.97142
lclavicle 3.18055e-015 -1.23246e-014
lhumerus -43.3563 27.3922 54.012
lradius 142.352
lwrist 32.4305
lhand 4.39554 26.0388
lfingers 7.12502
lthumb 29.7933 53.6633
rfemur -34.7473 12.0994 24.0965
rtibia 46.7326
rfoot -11.9798 -20.9451
rtoes -2.8343
lfemur -21.6614 -6.90654 -10.3078
ltibia 65.4729
lfoot -4.20506 -5.34741
ltoes 21.6303
132
root 9.14552 15.4076 -17.6913 6.68118 2.31873 -3.47575
lowerback -0.942556 -0.810221 0.827135
upperback -8.9458 -0.853699 2.77058
thorax -8.84698 -0.354532 2.5252
lowerneck -13.226 1.68631 -2.33885
upperneck 24.7542 2.52256 1.72772
head 9.99068 1.15605 1.31646
rclavicle 9.74045e-015 9.93923e-015
rhumerus -35.6421 -12.494 -56.4491
rradius 144.158
rwrist -58.3862
rhand -23.3993 39.0571
rfingers 7.12502
rthumb 3.05744 9.0993
lclavicle 9.74045e-015 9.93923e-015
lhumerus -43.5886 26.247 55.4304
lradius 142.212
lwrist 33.975
lhand 3.6302 25.1367
lfingers 7.12502
lthumb 29.0626 52.8897
rfemur -34.5274 12.0764 24.6263
rtibia 46.6078
rfoot -12.2386 -21.2008
rtoes -1.64141
lfemur -22.9548 -6.50881 -9.62859
ltibia 67.1939
lfoot -3.27574 -5.98043
ltoes 23.6608
133
root 9.09746 15.4119 -17.6545 6.59065 2.62997 -3.62374
lowerback -0.992156 -0.833316 0.753809
upperback -8.75669 -0.882268 2.92579
thorax -8.60477 -0.358318 2.72585
lowerneck -13.3513 1.69447 -2.62588
upperneck 24.4699 2.51991 2.06067
head 9.90269 1.17006 1.47837
rclavicle 6.95746e-016 -1.31198e-014
rhumerus -34.7524 -8.19491 -57.6204
rradius 143.904
rwrist -58.0594
rhand -23.9054 40.6605
rfingers 7.12502
rthumb 2.56872 10.6963
lclavicle 6.95746e-016 -1.31198e-014
lhumerus -43.3065 23.5616 56.7208
lradius 142.066
lwrist 36.4024
lhand 2.80995 25.7029
lfingers 7.12502
lthumb 28.2789 53.5884
rfemur -34.1633 12.0427 25.0588
rtibia 46.4728
rfoot -12.3361 -21.5545
rtoes -0.889079
lfemur -24.1917 -6.00413 -9.11991
ltibia 68.8406
lfoot -3.5662 -6.54149
ltoes 21.3901
134
root 9.05186 15.4124 -17.618 6.48002 2.94994 -3.73651
lowerback -0.873299 -0.856156 0.812327
upperback -8.71531 -0.905977 2.95498
thorax -8.6287 -0.372651 2.72713
lowerneck -13.1933 1.7319 -2.56911
upperneck 24.0843 2.52182 2.18594
head 9.73329 1.1947 1.50362
rclavicle 1.11319e-014 -1.59028e-015
rhumerus -33.9925 -2.79278 -58.3108
rradius 143.309
rwrist -56.343
rhand -23.8276 41.4062
rfingers 7.12502
rthumb 2.64387 11.4428
lclavicle 1.11319e-014 -1.59028e-015
lhumerus -42.8737 19.5195 57.6751
lradius 141.88
lwrist 38.8864
lhand 1.48786 27.2872
lfingers 7.12502
lthumb 27.0147 55.3753
rfemur -33.7971 11.9128 25.4572
rtibia 46.3422
rfoot -12.5077 -21.7616
rtoes -0.426527
lfemur -25.3886 -5.52071 -8.6674
ltibia 70.4508
lfoot -4.1839 -6.74106
ltoes 19.6449
135
root 9.00929 15.409 -17.5823 6.42464 3.27665 -3.86801
lowerback -0.852668 -0.863456 0.893522
upperback -8.71049 -0.907494 3.00585
thorax -8.63642 -0.37666 2.73605
lowerneck -12.981 1.71019 -2.43013
upperneck 23.7271 2.4706 2.11316
head 9.57097 1.17852 1.43955
rclavicle 2.28602e-015 -1.51076e-014
rhumerus -33.1785 2.95302 -58.1044
rradius 142.616
rwrist -54.6143
rhand -22.7089 40.966
rfingers 7.12502
rthumb 3.72418 11.0188
lclavicle 2.28602e-015 -1.51076e-014
lhumerus -42.3793 14.5689 58.5475
lradius 141.734
lwrist 40.266
lhand -0.174052 29.4034
lfingers 7.12502
lthumb 25.4237 57.728
rfemur -33.4928 11.7154 25.8621
rtibia 46.1809
rfoot -12.7114 -21.8571
rtoes -0.215457
lfemur -26.5687 -5.09777 -8.23889
ltibia 71.9472
lfoot -4.68151 -6.69973
ltoes 18.4284
136
root 8.96973 15.4068 -17.5509 6.24239 3.62492 -4.20386
lowerback -0.737315 -0.87466 1.18935
upperback -8.64572 -0.899005 3.13329
thorax -8.63717 -0.388491 2.70587
lowerneck -12.7253 1.65552 -2.39139
upperneck 23.3091 2.4023 2.01352
head 9.37965 1.1425 1.38012
rclavicle -7.85199e-015 -7.95139e-016
rhumerus -32.0961 9.0451 -57.2861
rradius 141.642
rwrist -52.1069
rhand -22.2185 40.3021
rfingers 7.12502
rthumb 4.19776 10.3637
lclavicle -7.85199e-015 -7.95139e-016
lhumerus -41.8352 8.95226 59.3082
lradius 141.349
lwrist 39.4726
lhand -1.39999 31.1454
lfingers 7.12502
lthumb 24.2488 59.632
rfemur -33.0808 11.5662 26.4845
rtibia 46.0668
rfoot -13.0214 -22.0194
rtoes 0.40061
lfemur -27.6398 -4.77719 -7.62449
ltibia 73.3484
lfoot -5.30258 -6.53393
ltoes 15.2148
